<svg xmlns:xlink="http://www.w3.org/1999/xlink" class="ml-8 md:ml-16 w-16 md:w-28 h-auto fill-current" viewBox="0 0 140 74" xmlns="http://www.w3.org/2000/svg" width="140"  height="74" >
<desc fill="#201D34">Created with Sketch.</desc>
<g fill="#201D34">
<g transform="translate(-53 -34)" fill="#201D34">
<g transform="translate(41 34)" fill="#201D34">
<g transform="translate(12)" fill="#201D34">
<g fill="#201D34">
<path d="m60 34.6v8.4c0 0.6-0.3 1.1-0.6 1.7-0.6 0.6-1.1 1.1-2 1.1-1.1 0-2-0.6-2.5-1.4-0.6-0.6-0.8-1.4-0.8-2.2 0-3.1 0-7.6 0.3-13.4s0.3-10.4 0.3-13.4c0-0.8 0.3-1.4 0.8-2 0.6-0.6 1.1-0.8 2-0.8s1.4 0.3 2 0.8c0.6 0.6 0.8 1.1 0.8 2 0 1.1 0 2.8-0.3 4.8-0.3 2.2-0.3 3.9-0.3 4.8 0.8-0.8 4.5-4.5 10.4-11.2 0.6-0.6 1.4-1.1 2.2-1.1s1.4 0.3 2 0.8c0.6 0.6 0.8 1.1 0.8 2s-1.7 3.1-4.8 6.4c-2.2 2.5-4.8 5-7.6 7.6 1.4 1.4 2.8 2.8 4.5 4.2 1.7 1.7 3.4 2.8 4.5 3.9 0.6 0.6 1.4 0.8 2.2 1.1 1.4 0.6 2.2 1.4 2.2 2.5 0 0.6-0.3 1.1-0.6 1.7-0.6 0.8-1.1 1.1-2 1.1-2 0-4.5-1.1-7.6-3.6-0.3-0.5-2.6-2.5-5.9-5.8" fill="#201D34"></path>
<path d="m88.8 27.6c-1.1 0-2.2 0.3-3.1 1.1-0.8 0.8-1.7 2-2.2 3.6 1.4-0.6 3.1-1.4 4.5-2 1.7-0.8 3.4-1.7 4.2-2.2-0.9-0.5-2-0.5-3.4-0.5m0.6 16.8c-3.1 0-5.9-0.8-7.8-2.2-2.2-1.7-3.4-3.9-3.4-7 0-3.4 0.8-6.2 2.8-8.7s4.8-3.9 8.1-3.9c2.2 0 4.2 0.3 5.9 1.1 2 1.1 3.1 2.5 3.1 4.5 0 1.4-0.8 2.8-2.5 3.9-0.8 0.6-2.2 1.4-4.5 2.2l-6.7 3.1c0.6 0.6 1.4 1.1 2.2 1.7 0.8 0.3 2 0.6 3.1 0.6 1.7 0 3.4-0.3 4.5-1.1 1.1-0.6 2-1.1 2.8-1.1 1.4 0 2 0.6 2 2s-1.1 2.8-3.4 3.6c-2 1-4 1.3-6.2 1.3" fill="#201D34"></path>
<path d="m116.2 27.3h-2.2c-0.6 0-1.1 0-2 0.3 0.3 5.3 0.3 9 0.3 10.6v1.9c0 3.1-0.8 4.5-2.8 4.5-0.8 0-1.4-0.3-2-0.6-0.6-0.6-0.8-1.1-0.8-1.7v-4.4c0-1.7 0-5-0.3-10.4-0.8 0-2-0.3-3.6-0.3-1.7-0.3-2.5-1.1-2.5-2.5 0-0.8 0.3-1.4 0.8-2 0.6-0.6 1.1-0.8 2-0.8 0.6 0 1.7 0 3.4 0.3v-4.2c0-0.8 0.3-1.4 0.8-2 0.6-0.6 1.1-0.8 2-0.8 2 0 3.1 1.7 3.1 5v1.8c0.8 0 1.4-0.3 2-0.3 1.4 0 2.5 0 3.1 0.3 1.1 0.3 1.7 1.1 1.7 2.5 0 0.8-0.3 1.4-0.8 2-0.5 0.5-1.3 0.8-2.2 0.8" fill="#201D34"></path>
<path d="m131.1 28.1c-1.7 0-2.8 0.8-3.9 2.2-0.8 1.4-1.1 2.8-1.1 4.5s0.6 2.8 1.4 3.6c0.8 0.6 1.7 1.1 2.5 1.1 1.1 0 2.2-0.3 3.1-1.1 0.8-0.8 1.4-2.2 1.7-3.6-0.4-4.7-1.5-6.7-3.7-6.7m-1.4 16.5c-2.5 0-4.5-0.8-6.4-2.5-2-2-3.1-4.2-3.1-7.6 0-3.1 0.8-5.6 2.5-7.8 2-2.8 4.8-4.2 8.4-4.2 2.8 0 4.8 1.1 6.4 3.1 1.4 2 2.2 4.2 2.2 7.3s-0.8 5.9-2.5 7.8c-1.9 2.8-4.2 3.9-7.5 3.9" fill="#201D34"></path>
<path d="m64.7 56.4c-0.8-0.6-3.1-1.7-6.2-2.8v14.8c0.3 0.3 0.8 0.6 1.4 0.6s1.1 0.3 1.7 0.3c2.2 0 3.6-0.3 4.8-0.8 0.8-0.6 1.7-1.4 2.2-2.2 0.6-1.1 0.8-2 0.8-3.1-0.2-2.9-1.6-4.8-4.7-6.8m-8.4 15.4c-0.6 0-1.1-0.3-1.4-0.6s-0.6-0.8-0.6-1.4c0-1.1 0-2.5 0.3-4.5 0-2 0.3-3.6 0.3-4.5v-10c0-0.6 0.3-1.1 0.8-1.7 0.6-0.6 1.1-0.8 1.7-0.8 0.3 0 1.1 0.3 2.5 0.8 1.7 0.8 2.5 1.1 2.8 1.1 2.8 0.8 5.3 2.5 7.6 4.5 2.5 2.2 3.6 5 3.6 7.8 0 1.7-0.6 3.4-1.4 5-0.8 1.7-2 2.8-3.6 3.9-1.7 1.1-3.9 1.7-7 1.7-0.8 0-1.7 0-2.5-0.3-1.4-0.2-2.2-0.4-3.1-1" fill="#201D34"></path>
<path d="m79.3 53.6c-0.6 0-1.1-0.3-1.7-0.6-0.6-0.6-0.8-0.8-0.8-1.7s0.3-1.1 0.8-1.7c0.6-0.6 1.1-0.6 1.7-0.6s1.1 0.3 1.7 0.6c0.6 0.6 0.6 0.8 0.6 1.7s-0.4 1.2-0.6 1.7c-0.6 0.3-1.2 0.6-1.7 0.6m1.4 11.2v5.6c0 0.6-0.3 1.1-0.6 1.4s-0.8 0.6-1.4 0.6-1.1-0.3-1.4-0.6-0.6-0.8-0.6-1.4v-5.6c0-0.8 0-2 0.3-3.4 0-1.4 0.3-2.5 0.3-3.4 0-0.6 0.3-1.1 0.6-1.4s0.8-0.6 1.4-0.6 1.1 0.3 1.4 0.6 0.6 0.8 0.6 1.4c0 0.8 0 2-0.3 3.4-0.3 1.2-0.3 2.3-0.3 3.4" fill="#201D34"></path>
<path d="m91.6 59.8c-0.8 0-1.7 0.3-2.5 0.8-0.6 0.6-1.1 1.7-1.7 2.8 1.1-0.6 2.2-0.8 3.4-1.4 1.4-0.6 2.5-1.1 3.4-1.7-0.6-0.5-1.5-0.5-2.6-0.5m0.6 12.6c-2.5 0-4.5-0.6-5.9-1.7-1.7-1.4-2.5-3.1-2.5-5.3 0-2.5 0.6-4.8 2-6.4 1.4-2 3.4-2.8 5.9-2.8 1.7 0 3.1 0.3 4.5 0.8 1.4 0.8 2.2 2 2.2 3.4 0 1.1-0.6 2-2 2.8-0.6 0.3-1.7 0.8-3.4 1.7l-5 2.1c0.6 0.6 1.1 0.8 1.7 1.1s1.4 0.3 2.2 0.3c1.4 0 2.5-0.3 3.4-0.8 0.8-0.6 1.4-0.8 2-0.8 1.1 0 1.7 0.6 1.7 1.4 0 1.1-0.8 2-2.5 2.8-1.3 1.1-2.9 1.4-4.3 1.4" fill="#201D34"></path>
<path d="m112.3 59.8h-3c0.3 3.9 0.3 6.7 0.3 7.8v1.6c0 2.2-0.8 3.4-2.2 3.4-0.6 0-1.1-0.3-1.4-0.6-0.6-0.3-0.6-0.8-0.6-1.4v-3.3c0-1.1 0-3.9-0.3-7.8-0.6 0-1.7 0-2.8-0.3-1.1 0-2-0.8-2-2 0-0.6 0.3-1.1 0.6-1.4s0.8-0.6 1.4-0.6c0.3 0 1.1 0 2.5 0.3v-3.1c0-0.6 0.3-1.1 0.6-1.4s0.8-0.6 1.4-0.6c1.4 0 2.2 1.1 2.2 3.6v1.1h1.4c1.1 0 2 0 2.2 0.3 0.8 0.3 1.1 0.8 1.1 2 0 0.6-0.3 1.1-0.6 1.4 0.3 0.7-0.2 1-0.8 1" fill="#201D34"></path>
<path d="m18.6 45c-0.5 0.6-1.3 1-2 0.7-0.2-0.1-0.5-0.5-0.6-0.8s0-0.5 0.2-1c2.4-3.6 6.4-5.3 9.9-3.8 0.4 0.2 0.8 0.3 1.1 0.7-3.1-0.4-6.5 1.3-8.6 4.2m8.4-7.2c-5-2.1-11.4 1.2-14 7.5s-0.4 13.1 4.7 15.2 11.4-1.2 14-7.5 0.6-13-4.7-15.2" fill="#201D34"></path>
<path d="m57.9 5.6c-2.2 3.1-4.7 5-7.7 5.8-2.4 0.4-5 0.4-7.6-0.7-0.6-0.3-1.1-0.6-1.7-0.9 0.2-0.3 0.6-0.4 1-0.5 1-0.5 2.3-0.9 3.6-1.2 1.3-0.4 2.6-0.7 3.9-1.1 0-0.7 0.7-0.7 0.9-0.9-0.3-0.2-1-0.2-1.7-0.2 0 0 0.2-0.3 0.3-0.5 0.2-0.3 0.3-0.6 0.6-0.4l0.2-0.3s-0.6 0.4-1 0.5c-0.2 0.3-0.6 0.4-0.6 0.4l-0.1 0.1c-0.7 0-1.3 0.4-2 0.3 0.2-0.3 0.3-0.5 0.9-0.9 0.3-0.6 0.7-0.7 0.9-0.9-0.4 0.1-0.7 0.7-1.2 0.8-0.6 0.4-0.7 0.7-0.9 0.9-0.2 0.3-0.2 0.3-0.3 0.6l-0.4 0.1c-0.9 0.2-1.3 0.4-2.2 0.6 0.2-0.3 0.7-0.7 0.9-0.9-0.6 0.4-0.9 0.9-1.3 1.1-0.2 0.1-0.4 0.4-0.4 0.4l-0.4 0.1c-0.2 0.3-0.4 0.1-0.6 0.4 1.8-2.6 4.4-4.4 7.2-5 2.6-0.7 5-0.4 7.4 0.5 0.6 0.3 1.4 0.8 2.2 1.3l0.3 0.2-0.2 0.3zm-15.5 22.9c-2.6 6.3-3.2 12.5-2 18.9 0.9 3.5 0.5 7.5-1 11.1-1.7 4.6-5.2 8.2-9.8 10.1-2.4 1-4.9 1.6-7.6 1.6-2.5 0-4.9-0.5-7.2-1.4-4.7-1.9-8.4-5.6-10.3-10.3-2-4.7-2-9.9 0-14.6 1.4-3.5 3.8-6.4 7.1-8.6 5.4-3.6 9.6-8.7 12.1-14.8 1.5-3.8 5.4-6.3 9.6-6.3 1.3 0 2.6 0.2 3.8 0.7 5.1 2.2 7.5 8.3 5.3 13.6zm16.4-24.6c-1.1-0.6-2.2-1.3-3.6-2-2.6-1.1-5.7-1.5-8.5-0.5-3 0.8-5.8 2.5-7.7 5.1l-0.3 0.6-0.1-0.4c-0.9-2.3-1.5-4.5-2.6-6.2-0.3-0.2-0.3-0.2-0.6-0.3s-0.7 0-0.7 0c-0.4 0.1-0.5 0.8-0.4 1.3 2.1 3.7 2.7 6.5 2.8 10.5-1.2-0.4-2.4-0.6-3.6-0.6-5.2 0-9.8 3.3-12 8.5s-6.2 9.9-11.4 13.1c-2.8 1.9-6.5 5.1-8.5 10-2.3 5.5-2.3 11.5 0 17 2.2 5.5 6.5 9.7 11.9 12 2.7 1.1 5.6 1.7 8.5 1.7 9-0.2 17-5.7 20.4-14.1 1.6-3.9 2-8.4 1.1-12.8-1.2-6.1-0.7-12.2 1.5-17.5 1.4-3.4 1.5-7 0.3-10.2-1.1-2.8-3.1-4.9-5.7-6.4 0.1-0.1 0.1-0.3 0-0.8l-0.1-0.4 0.3 0.2c0.6 0.3 0.8 0.5 1.4 0.8 2.6 1.1 5.7 1.4 8.5 0.5 4.2-0.9 7.3-3.9 9.5-7.7 0.2-0.4 0.2-1.1-0.4-1.4z" fill="#201D34"></path>
<path d="m43.7 6.2c0.6-0.4 0.9-0.9 1.3-1.1-0.4 0.2-1 0.6-1.3 1.1" fill="#201D34"></path>
<path d="m45.6 4.8s-0.4 0.1-0.6 0.4c0.4-0.2 0.6-0.4 0.6-0.4" fill="#201D34"></path>
</g>
</g>
</g>
</g>
</g>
</svg>